<svg width="22" height="21" viewBox="0 0 22 21" fill="none" xmlns="http://www.w3.org/2000/svg">
<path d="M10.0074 0.062809C4.97906 0.062809 0.888062 4.14262 0.888062 9.1573C0.888062 14.172 4.9791 18.2518 10.0074 18.2518C15.0358 18.2518 19.1269 14.172 19.1269 9.1573C19.1269 4.14262 15.0358 0.062809 10.0074 0.062809ZM10.0074 16.7568C5.8033 16.7568 2.38304 13.3475 2.38304 9.15726C2.38304 4.96682 5.8033 1.55775 10.0074 1.55775C14.2116 1.55775 17.6318 4.96682 17.6318 9.15726C17.6319 13.3475 14.2116 16.7568 10.0074 16.7568Z" fill="#ECECEC"/>
<path d="M21.3485 19.4161L16.44 14.5325C16.1472 14.2415 15.674 14.2427 15.3827 14.5353C15.0917 14.828 15.093 15.3012 15.3855 15.5925L20.294 20.4761C20.44 20.6211 20.6304 20.6936 20.8213 20.6936C21.0134 20.6936 21.2052 20.6201 21.3513 20.4733C21.6423 20.1805 21.641 19.7074 21.3485 19.4161Z" fill="#ECECEC"/>
</svg>
